<svg width="103" height="42" viewBox="0 0 103 42" fill="none" xmlns="http://www.w3.org/2000/svg">
<path d="M41.0142 18.1982C40.392 18.1982 39.8317 18.0874 39.3331 17.8658C38.8388 17.6399 38.4467 17.3075 38.157 16.8686C37.8714 16.4297 37.7287 15.8885 37.7287 15.245C37.7287 14.6911 37.831 14.233 38.0355 13.8707C38.2401 13.5085 38.5192 13.2188 38.8729 13.0014C39.2266 12.7841 39.625 12.62 40.0682 12.5092C40.5156 12.3942 40.978 12.3111 41.4553 12.2599C42.0305 12.2003 42.4972 12.147 42.8551 12.1001C43.2131 12.049 43.473 11.9723 43.6349 11.87C43.8011 11.7635 43.8842 11.5994 43.8842 11.3778V11.3395C43.8842 10.858 43.7415 10.4851 43.456 10.2209C43.1705 9.95668 42.7592 9.82457 42.2223 9.82457C41.6555 9.82457 41.206 9.94815 40.8736 10.1953C40.5455 10.4425 40.3239 10.7344 40.2088 11.071L38.0483 10.7642C38.2188 10.1676 38.5 9.66903 38.892 9.26847C39.2841 8.86364 39.7635 8.56108 40.3303 8.3608C40.897 8.15625 41.5234 8.05398 42.2095 8.05398C42.6825 8.05398 43.1534 8.10938 43.6222 8.22017C44.0909 8.33097 44.5192 8.5142 44.907 8.76989C45.2947 9.02131 45.6058 9.36435 45.8402 9.79901C46.0788 10.2337 46.1982 10.777 46.1982 11.429V18H43.9737V16.6513H43.897C43.7564 16.924 43.5582 17.1797 43.3026 17.4183C43.0511 17.6527 42.7337 17.8423 42.3501 17.9872C41.9709 18.1278 41.5256 18.1982 41.0142 18.1982ZM41.6151 16.4979C42.0795 16.4979 42.4822 16.4062 42.8232 16.223C43.1641 16.0355 43.4261 15.7884 43.6094 15.4815C43.7969 15.1747 43.8906 14.8402 43.8906 14.478V13.321C43.8182 13.3807 43.6946 13.4361 43.5199 13.4872C43.3494 13.5384 43.1577 13.5831 42.9446 13.6214C42.7315 13.6598 42.5206 13.6939 42.3118 13.7237C42.103 13.7536 41.9219 13.7791 41.7685 13.8004C41.4233 13.8473 41.1143 13.924 40.8416 14.0305C40.5689 14.1371 40.3537 14.2862 40.196 14.478C40.0384 14.6655 39.9595 14.9084 39.9595 15.2067C39.9595 15.6328 40.1151 15.9545 40.4261 16.1719C40.7372 16.3892 41.1335 16.4979 41.6151 16.4979ZM49.5271 18V4.90909H51.8411V9.8054H51.9369C52.0562 9.56676 52.2246 9.31321 52.4419 9.04474C52.6592 8.77202 52.9533 8.53977 53.324 8.34801C53.6947 8.15199 54.1678 8.05398 54.743 8.05398C55.5016 8.05398 56.1855 8.24787 56.7949 8.63565C57.4085 9.01918 57.8943 9.58807 58.2523 10.3423C58.6145 11.0923 58.7956 12.0128 58.7956 13.1037C58.7956 14.1818 58.6187 15.098 58.2651 15.8523C57.9114 16.6065 57.4298 17.1818 56.8205 17.5781C56.2111 17.9744 55.5207 18.1726 54.7494 18.1726C54.1869 18.1726 53.7203 18.0788 53.3496 17.8913C52.9788 17.7038 52.6805 17.478 52.4547 17.2138C52.2331 16.9453 52.0605 16.6918 51.9369 16.4531H51.8027V18H49.5271ZM51.7963 13.0909C51.7963 13.7259 51.8858 14.282 52.0648 14.7592C52.248 15.2365 52.5101 15.6094 52.851 15.8778C53.1962 16.142 53.6138 16.2741 54.1038 16.2741C54.6152 16.2741 55.0435 16.1378 55.3886 15.8651C55.7338 15.5881 55.9937 15.2109 56.1685 14.7337C56.3474 14.2521 56.4369 13.7045 56.4369 13.0909C56.4369 12.4815 56.3496 11.9403 56.1749 11.4673C56.0001 10.9943 55.7402 10.6236 55.395 10.3551C55.0499 10.0866 54.6195 9.95241 54.1038 9.95241C53.6095 9.95241 53.1898 10.0824 52.8446 10.3423C52.4994 10.6023 52.2374 10.9666 52.0584 11.4354C51.8837 11.9041 51.7963 12.456 51.7963 13.0909Z" fill="black"/>
<path d="M42.4716 36.1918C41.5128 36.1918 40.6818 35.9808 39.9787 35.5589C39.2756 35.1371 38.7301 34.5469 38.3423 33.7884C37.9588 33.0298 37.767 32.1435 37.767 31.1293C37.767 30.1151 37.9588 29.2266 38.3423 28.4638C38.7301 27.701 39.2756 27.1087 39.9787 26.6868C40.6818 26.2649 41.5128 26.054 42.4716 26.054C43.4304 26.054 44.2614 26.2649 44.9645 26.6868C45.6676 27.1087 46.2109 27.701 46.5945 28.4638C46.9822 29.2266 47.1761 30.1151 47.1761 31.1293C47.1761 32.1435 46.9822 33.0298 46.5945 33.7884C46.2109 34.5469 45.6676 35.1371 44.9645 35.5589C44.2614 35.9808 43.4304 36.1918 42.4716 36.1918ZM42.4844 34.3381C43.0043 34.3381 43.4389 34.1953 43.7884 33.9098C44.1378 33.62 44.3977 33.2322 44.5682 32.7464C44.7429 32.2607 44.8303 31.7195 44.8303 31.1229C44.8303 30.522 44.7429 29.9787 44.5682 29.4929C44.3977 29.0028 44.1378 28.6129 43.7884 28.3232C43.4389 28.0334 43.0043 27.8885 42.4844 27.8885C41.9517 27.8885 41.5085 28.0334 41.1548 28.3232C40.8054 28.6129 40.5433 29.0028 40.3686 29.4929C40.1982 29.9787 40.1129 30.522 40.1129 31.1229C40.1129 31.7195 40.1982 32.2607 40.3686 32.7464C40.5433 33.2322 40.8054 33.62 41.1548 33.9098C41.5085 34.1953 41.9517 34.3381 42.4844 34.3381ZM52.354 30.2472V36H50.0401V26.1818H52.2517V27.8501H52.3668C52.5926 27.3004 52.9527 26.8636 53.4471 26.5398C53.9456 26.2159 54.5614 26.054 55.2944 26.054C55.9719 26.054 56.5621 26.1989 57.065 26.4886C57.5721 26.7784 57.9641 27.1982 58.2411 27.7479C58.5223 28.2976 58.6608 28.9645 58.6566 29.7486V36H56.3426V30.1065C56.3426 29.4503 56.1722 28.9368 55.8313 28.5661C55.4946 28.1953 55.028 28.0099 54.4314 28.0099C54.0266 28.0099 53.6665 28.0994 53.3512 28.2784C53.0401 28.4531 52.7951 28.7067 52.6161 29.0391C52.4414 29.3714 52.354 29.7741 52.354 30.2472ZM64.2228 30.2472V36H61.9088V26.1818H64.1205V27.8501H64.2355C64.4614 27.3004 64.8215 26.8636 65.3158 26.5398C65.8144 26.2159 66.4301 26.054 67.1631 26.054C67.8407 26.054 68.4309 26.1989 68.9337 26.4886C69.4408 26.7784 69.8328 27.1982 70.1098 27.7479C70.3911 28.2976 70.5296 28.9645 70.5253 29.7486V36H68.2114V30.1065C68.2114 29.4503 68.0409 28.9368 67.7 28.5661C67.3634 28.1953 66.8968 28.0099 66.3002 28.0099C65.8953 28.0099 65.5353 28.0994 65.2199 28.2784C64.9088 28.4531 64.6638 28.7067 64.4848 29.0391C64.3101 29.3714 64.2228 29.7741 64.2228 30.2472ZM78.1242 36.1918C77.1398 36.1918 76.2897 35.9872 75.5738 35.5781C74.8621 35.1648 74.3145 34.581 73.931 33.8267C73.5475 33.0682 73.3557 32.1754 73.3557 31.1484C73.3557 30.1385 73.5475 29.2521 73.931 28.4893C74.3188 27.7223 74.86 27.1257 75.5546 26.6996C76.2492 26.2692 77.0652 26.054 78.0027 26.054C78.6078 26.054 79.1789 26.152 79.7158 26.348C80.257 26.5398 80.7343 26.8381 81.1476 27.2429C81.5652 27.6477 81.8934 28.1634 82.132 28.7898C82.3706 29.4119 82.49 30.1534 82.49 31.0142V31.7237H74.4424V30.1641H80.2719C80.2677 29.7209 80.1718 29.3267 79.9843 28.9815C79.7968 28.6321 79.5347 28.3572 79.198 28.157C78.8657 27.9567 78.4779 27.8565 78.0347 27.8565C77.5617 27.8565 77.1462 27.9716 76.7882 28.2017C76.4303 28.4276 76.1512 28.7259 75.9509 29.0966C75.7549 29.4631 75.6547 29.8658 75.6505 30.3047V31.6662C75.6505 32.2372 75.7549 32.7273 75.9637 33.1364C76.1725 33.5412 76.4644 33.8523 76.8394 34.0696C77.2144 34.2827 77.6533 34.3892 78.1561 34.3892C78.4928 34.3892 78.7975 34.3423 79.0702 34.2486C79.3429 34.1506 79.5794 34.0078 79.7797 33.8203C79.98 33.6328 80.1313 33.4006 80.2336 33.1236L82.3941 33.3665C82.2577 33.9375 81.9978 34.4361 81.6142 34.8622C81.235 35.2841 80.7492 35.6122 80.1569 35.8466C79.5645 36.0767 78.887 36.1918 78.1242 36.1918ZM89.6302 36.1918C88.6501 36.1918 87.8085 35.9766 87.1053 35.5462C86.4065 35.1158 85.8674 34.5213 85.4881 33.7628C85.1131 33 84.9256 32.1222 84.9256 31.1293C84.9256 30.1321 85.1174 29.2521 85.5009 28.4893C85.8844 27.7223 86.4256 27.1257 87.1245 26.6996C87.8276 26.2692 88.6586 26.054 89.6174 26.054C90.4143 26.054 91.1195 26.201 91.7332 26.495C92.3511 26.7848 92.8433 27.196 93.2097 27.7287C93.5762 28.2571 93.785 28.875 93.8361 29.5824H91.6245C91.535 29.1094 91.3219 28.7152 90.9853 28.3999C90.6529 28.0803 90.2076 27.9205 89.6494 27.9205C89.1763 27.9205 88.7609 28.0483 88.4029 28.304C88.045 28.5554 87.7658 28.9176 87.5656 29.3906C87.3695 29.8636 87.2715 30.4304 87.2715 31.0909C87.2715 31.7599 87.3695 32.3352 87.5656 32.8168C87.7616 33.294 88.0364 33.6626 88.3901 33.9226C88.7481 34.1783 89.1678 34.3061 89.6494 34.3061C89.9903 34.3061 90.295 34.2422 90.5634 34.1143C90.8361 33.9822 91.0641 33.7926 91.2474 33.5455C91.4306 33.2983 91.5563 32.9979 91.6245 32.6442H93.8361C93.7808 33.3388 93.5762 33.9545 93.2225 34.4915C92.8688 35.0241 92.3873 35.4418 91.7779 35.7443C91.1685 36.0426 90.4526 36.1918 89.6302 36.1918ZM101.539 26.1818V27.9716H95.8947V26.1818H101.539ZM97.2882 23.8295H99.6021V33.0469C99.6021 33.358 99.649 33.5966 99.7427 33.7628C99.8407 33.9247 99.9686 34.0355 100.126 34.0952C100.284 34.1548 100.459 34.1847 100.65 34.1847C100.795 34.1847 100.927 34.174 101.047 34.1527C101.17 34.1314 101.264 34.1122 101.328 34.0952L101.718 35.9041C101.594 35.9467 101.417 35.9936 101.187 36.0447C100.961 36.0959 100.684 36.1257 100.356 36.1342C99.7768 36.1513 99.2548 36.0639 98.7903 35.8722C98.3258 35.6761 97.9572 35.3736 97.6845 34.9645C97.416 34.5554 97.2839 34.044 97.2882 33.4304V23.8295Z" fill="black"/>
<path d="M27.0102 23.9667L22.6183 28.075L17.9454 23.6667C17.3241 23.0928 16.8303 22.4068 16.4932 21.6489C16.156 20.891 15.9823 20.0768 15.9823 19.2542C15.9823 18.4316 16.156 17.6173 16.4932 16.8595C16.8303 16.1016 17.3241 15.4155 17.9454 14.8417C19.1536 13.7431 20.7465 13.1059 22.419 13.0521C24.0916 12.9983 25.7263 13.5316 27.0102 14.55C27.3643 14.8922 27.7867 15.164 28.2527 15.3495C28.7187 15.535 29.219 15.6306 29.7244 15.6306C30.2298 15.6306 30.7302 15.535 31.1962 15.3495C31.6622 15.164 32.0846 14.8922 32.4386 14.55C32.8149 14.2236 33.1154 13.8265 33.321 13.3839C33.5266 12.9413 33.6328 12.4629 33.6328 11.9792C33.6328 11.4955 33.5266 11.0171 33.321 10.5745C33.1154 10.1319 32.8149 9.73471 32.4386 9.40834C29.7107 7.01663 26.1171 5.71274 22.4031 5.76704C18.6891 5.82135 15.1396 7.22968 12.4906 9.7C9.86755 12.2695 8.40088 15.7063 8.40088 19.2833C8.40088 22.8604 9.86755 26.2972 12.4906 28.8667L22.4427 38.275L32.4035 29.1083C32.7826 28.7718 33.0836 28.364 33.2872 27.9109C33.4907 27.4578 33.5925 26.9695 33.5859 26.477C33.5793 25.9845 33.4644 25.4987 33.2487 25.0507C33.0331 24.6026 32.7212 24.2022 32.3332 23.875C31.9874 23.5336 31.5714 23.2631 31.111 23.0805C30.6506 22.8978 30.1555 22.8068 29.6565 22.813C29.1575 22.8193 28.6651 22.9227 28.2099 23.1168C27.7547 23.3109 27.3464 23.5917 27.0102 23.9417V23.9667Z" stroke="black" stroke-width="2" stroke-linecap="round" stroke-linejoin="round"/>
</svg>
